<svg width="214" height="214" viewBox="0 0 214 214" fill="none" xmlns="http://www.w3.org/2000/svg">
<path d="M107 209.72C50.3607 209.72 4.28003 163.639 4.28003 107C4.28003 50.3607 50.3607 4.28003 107 4.28003C163.639 4.28003 209.72 50.3607 209.72 107C209.72 163.639 163.639 209.72 107 209.72ZM107 17.12C57.4398 17.12 17.12 57.4398 17.12 107C17.12 156.56 57.4398 196.88 107 196.88C156.56 196.88 196.88 156.56 196.88 107C196.88 57.4398 156.56 17.12 107 17.12ZM154.812 151.264C155.566 150.887 156.239 150.365 156.791 149.728C157.344 149.091 157.765 148.352 158.032 147.552C158.299 146.752 158.405 145.907 158.345 145.066C158.286 144.225 158.061 143.404 157.684 142.65C157.085 141.454 142.659 113.42 107 113.42C71.3412 113.42 56.9155 141.454 56.3163 142.648C55.5586 144.165 55.4331 145.921 55.9674 147.53C56.5017 149.139 57.6522 150.471 59.1668 151.234C60.6842 151.997 62.4417 152.129 64.0563 151.602C65.6709 151.075 67.0118 149.931 67.7867 148.42C68.2511 147.515 79.4582 126.26 107 126.26C134.542 126.26 145.749 147.515 146.196 148.392C146.729 149.46 147.55 150.358 148.566 150.985C149.582 151.612 150.753 151.943 151.946 151.94C152.909 151.94 153.89 151.724 154.812 151.264ZM139.1 94.16C132.019 94.16 126.26 88.4013 126.26 81.32C126.26 74.2388 132.019 68.48 139.1 68.48C146.181 68.48 151.94 74.2388 151.94 81.32C151.94 88.4013 146.181 94.16 139.1 94.16ZM74.9 94.16C67.8188 94.16 62.06 88.4013 62.06 81.32C62.06 74.2388 67.8188 68.48 74.9 68.48C81.9813 68.48 87.74 74.2388 87.74 81.32C87.74 88.4013 81.9813 94.16 74.9 94.16Z" fill="black"/>
</svg>
