<svg width="195" height="195" viewBox="0 0 195 195" fill="none" xmlns="http://www.w3.org/2000/svg">
<g clip-path="url(#clip0_563_137)">
<path d="M166.443 28.5568C148.028 10.142 123.543 0 97.5 0C71.4568 0 46.9725 10.142 28.5568 28.5568C10.142 46.9725 0 71.4568 0 97.5C0 123.543 10.142 148.028 28.5568 166.443C46.9725 184.858 71.4568 195 97.5 195C123.543 195 148.028 184.858 166.443 166.443C184.858 148.028 195 123.543 195 97.5C195 71.4568 184.858 46.9725 166.443 28.5568ZM97.5 182.938C50.3892 182.938 12.0619 144.611 12.0619 97.5C12.0619 50.3892 50.3892 12.0619 97.5 12.0619C144.611 12.0619 182.938 50.3892 182.938 97.5C182.938 144.611 144.611 182.938 97.5 182.938Z" fill="black"/>
<path d="M128.062 64.9274C120.303 64.9274 113.99 71.2401 113.99 78.9995C113.99 86.7589 120.303 93.0717 128.062 93.0717C135.822 93.0717 142.134 86.7589 142.134 78.9995C142.134 71.2401 135.822 64.9274 128.062 64.9274ZM81.0098 78.9995C81.0098 71.2401 74.697 64.9274 66.9376 64.9274C59.1783 64.9274 52.8655 71.2401 52.8655 78.9995C52.8655 86.7589 59.1783 93.0717 66.9376 93.0717C74.697 93.0717 81.0098 86.7589 81.0098 78.9995ZM59.4127 125.742H135.588V137.804H59.4127V125.742Z" fill="black"/>
</g>
<defs>
<clipPath id="clip0_563_137">
<rect width="195" height="195" fill="white"/>
</clipPath>
</defs>
</svg>
