<svg width="204" height="204" viewBox="0 0 204 204" fill="none" xmlns="http://www.w3.org/2000/svg">
<g clip-path="url(#clip0_563_133)">
<path d="M174.125 29.8749C154.86 10.6101 129.245 0 102 0C74.7549 0 49.1404 10.6101 29.8749 29.8749C10.6101 49.1404 0 74.7549 0 102C0 129.245 10.6101 154.86 29.8749 174.125C49.1404 193.39 74.7549 204 102 204C129.245 204 154.86 193.39 174.125 174.125C193.39 154.86 204 129.245 204 102C204 74.7549 193.39 49.1404 174.125 29.8749ZM102 191.381C52.7149 191.381 12.6186 151.285 12.6186 102C12.6186 52.7149 52.7149 12.6186 102 12.6186C151.285 12.6186 191.381 52.7149 191.381 102C191.381 151.285 151.285 191.381 102 191.381Z" fill="black"/>
<path d="M133.973 97.3673C142.09 97.3673 148.695 90.7631 148.695 82.6456C148.695 74.5281 142.09 67.924 133.973 67.924C125.855 67.924 119.251 74.5281 119.251 82.6456C119.251 90.7631 125.855 97.3673 133.973 97.3673ZM70.0271 97.3673C78.1446 97.3673 84.7488 90.7631 84.7488 82.6456C84.7488 74.5281 78.1446 67.924 70.0271 67.924C61.9096 67.924 55.3055 74.5281 55.3055 82.6456C55.3055 90.7631 61.91 97.3673 70.0271 97.3673ZM102 149.32C82.2684 149.32 64.4178 136.861 57.581 118.319L45.7415 122.684C54.3982 146.163 77.0069 161.938 102 161.938C126.993 161.938 149.602 146.163 158.259 122.684L146.419 118.319C139.582 136.861 121.732 149.32 102 149.32Z" fill="black"/>
</g>
<defs>
<clipPath id="clip0_563_133">
<rect width="204" height="204" fill="white"/>
</clipPath>
</defs>
</svg>
