<svg width="227" height="227" viewBox="0 0 227 227" fill="none" xmlns="http://www.w3.org/2000/svg">
<path d="M201.477 30.5585L205.178 40.9655C205.337 41.4111 205.651 41.764 206.046 41.9427L215.292 46.1085C216.598 46.6973 216.598 48.7784 215.292 49.3667L206.046 53.5325C205.651 53.7108 205.337 54.0641 205.178 54.5097L201.477 64.9167C200.954 66.3869 199.105 66.3869 198.583 64.9167L194.881 54.5097C194.723 54.0641 194.409 53.7112 194.013 53.5325L184.767 49.3667C183.461 48.7784 183.461 46.6968 184.767 46.1085L194.013 41.9427C194.409 41.7645 194.723 41.4111 194.881 40.9655L198.583 30.5585C199.105 29.0884 200.954 29.0884 201.477 30.5585ZM63.1411 0.817998L65.8864 8.53777C66.0039 8.86807 66.2366 9.1301 66.5301 9.26266L73.3889 12.3529C74.3581 12.7896 74.3581 14.3334 73.3889 14.7696L66.5301 17.8598C66.2366 17.992 66.0039 18.254 65.8864 18.5847L63.1411 26.3045C62.7531 27.3952 61.3814 27.3952 60.9935 26.3045L58.2482 18.5847C58.1307 18.2544 57.8979 17.9924 57.6044 17.8598L50.7456 14.7696C49.7769 14.3329 49.7769 12.7891 50.7456 12.3529L57.6044 9.26266C57.8979 9.13054 58.1307 8.86852 58.2482 8.53777L60.9935 0.817998C61.3814 -0.272666 62.7531 -0.272666 63.1411 0.817998ZM175.242 16.9372C175.242 19.9405 172.808 22.375 169.804 22.375C166.801 22.375 164.366 19.9401 164.366 16.9372C164.366 13.9339 166.801 11.499 169.804 11.499C172.808 11.499 175.242 13.9335 175.242 16.9372ZM26.7936 47.2289C26.7936 51.6651 23.1971 55.2616 18.7608 55.2616C14.3246 55.2616 10.728 51.6651 10.728 47.2289C10.728 42.7926 14.3246 39.1961 18.7608 39.1961C23.1971 39.1965 26.7936 42.7926 26.7936 47.2289ZM109.737 227C59.0976 227 17.8998 185.802 17.8998 135.163C17.8998 84.5234 59.0976 43.3251 109.737 43.3251C160.377 43.3251 201.575 84.5234 201.575 135.163C201.574 185.802 160.376 227 109.737 227ZM109.737 52.2419C64.0145 52.2419 26.8171 89.4398 26.8171 135.162C26.8171 180.884 64.0149 218.083 109.737 218.083C155.46 218.083 192.657 180.885 192.657 135.163C192.657 89.4402 155.46 52.2419 109.737 52.2419Z" fill="black"/>
<path d="M89.0811 114.604C86.6192 114.604 84.6227 112.607 84.6227 110.145C84.6227 103.302 79.0559 97.7354 72.2135 97.7354C65.3707 97.7354 59.8039 103.302 59.8039 110.145C59.8039 112.607 57.8074 114.604 55.3455 114.604C52.8835 114.604 50.887 112.607 50.887 110.145C50.887 98.3854 60.4543 88.8186 72.214 88.8186C83.9732 88.8186 93.5404 98.3859 93.5404 110.145C93.5395 112.607 91.5431 114.604 89.0811 114.604ZM164.129 114.604C161.667 114.604 159.671 112.607 159.671 110.145C159.671 103.302 154.104 97.7354 147.261 97.7354C140.419 97.7354 134.852 103.302 134.852 110.145C134.852 112.607 132.856 114.604 130.394 114.604C127.932 114.604 125.935 112.607 125.935 110.145C125.935 98.3854 135.503 88.8186 147.262 88.8186C159.022 88.8186 168.589 98.3859 168.589 110.145C168.588 112.607 166.591 114.604 164.129 114.604ZM169.074 132.358H50.4007C47.9387 132.358 45.9423 134.354 45.9423 136.817C45.9423 171.993 74.5607 200.612 109.737 200.612C144.914 200.612 173.532 171.993 173.532 136.817C173.532 134.355 171.536 132.358 169.074 132.358ZM150.218 173.826C138.5 185 126.73 191.695 109.737 191.695C92.7442 191.695 82.5 187 69.2545 173.825C61.2608 165.088 56.0473 153.767 55.0378 141.276H164.435C163.426 153.767 158.213 165.089 150.218 173.826Z" fill="black"/>
</svg>
