<svg width="15" height="15" viewBox="0 0 15 15" fill="none" xmlns="http://www.w3.org/2000/svg">
<path d="M14.7897 1.33174L13.7536 0.307891C13.4732 0.0275192 13.01 0.0275192 12.7174 0.307891L7.54875 5.47637L2.2827 0.210371C2.00221 -0.0701235 1.53898 -0.0701235 1.24654 0.210371L0.210372 1.24653C-0.0701241 1.5269 -0.0701241 1.99012 0.210372 2.28269L5.46435 7.53662L0.307894 12.7174C0.0275194 12.9978 0.0275194 13.461 0.307894 13.7536L1.34406 14.7897C1.62443 15.0701 2.08766 15.0701 2.38023 14.7897L7.54875 9.62112L12.7174 14.7897C12.9978 15.0701 13.461 15.0701 13.7536 14.7897L14.7897 13.7536C15.0701 13.4732 15.0701 13.01 14.7897 12.7174L9.60889 7.54881L14.7775 2.38033C14.9168 2.24214 14.9962 2.05472 14.9985 1.85853C15.0007 1.66234 14.9258 1.47312 14.7897 1.33174Z" fill="white"/>
</svg>
