<svg width="512" height="512" viewBox="0 0 512 512" fill="none" xmlns="http://www.w3.org/2000/svg">
<g clip-path="url(#clip0_400_129)">
<path d="M504.822 45.4579L469.455 10.5104C459.885 0.940303 444.073 0.940303 434.087 10.5104L257.664 186.929L77.9173 7.18167C68.343 -2.39259 52.5315 -2.39259 42.5495 7.18167L7.18179 42.5494C-2.39247 52.1195 -2.39247 67.931 7.18179 77.9171L186.517 257.252L10.5105 434.091C0.940425 443.661 0.940425 459.473 10.5105 469.459L45.8783 504.827C55.4483 514.397 71.2598 514.397 81.246 504.827L257.664 328.404L434.087 504.827C443.657 514.397 459.469 514.397 469.455 504.827L504.822 469.459C514.393 459.889 514.393 444.077 504.822 434.091L327.984 257.668L504.406 81.25C509.161 76.5333 511.869 70.1359 511.947 63.4392C512.025 56.7425 509.466 50.2839 504.822 45.4579Z" fill="black"/>
</g>
<defs>
<clipPath id="clip0_400_129">
<rect width="512" height="512" fill="white"/>
</clipPath>
</defs>
</svg>
