<svg width="12" height="12" viewBox="0 0 12 12" fill="none" xmlns="http://www.w3.org/2000/svg">
<g clip-path="url(#clip0_176_149)">
<path d="M11.0755 7.50852C10.9104 7.50852 10.7767 7.64229 10.7767 7.80738V10.4609C10.7761 10.9559 10.3751 11.3571 9.88008 11.3575H1.49431C0.999305 11.3571 0.598322 10.9559 0.597724 10.4609V2.6729C0.598322 2.17801 0.999335 1.77691 1.49431 1.77631H4.14791C4.31297 1.77631 4.44677 1.64251 4.44677 1.47745C4.44677 1.31248 4.31297 1.17859 4.14791 1.17859H1.49431C0.669391 1.17952 0.000926472 1.84798 0 2.6729V10.4611C0.000926472 11.286 0.669391 11.9544 1.49431 11.9554H9.88008C10.705 11.9544 11.3735 11.286 11.3744 10.4611V7.80738C11.3744 7.64229 11.2406 7.50852 11.0755 7.50852Z" fill="white"/>
<path d="M11.256 0.40954C10.7308 -0.11568 9.87927 -0.11568 9.35408 0.40954L4.02214 5.74145C3.98564 5.77794 3.95922 5.82327 3.94545 5.87301L3.24429 8.40437C3.23014 8.45534 3.22977 8.50915 3.24323 8.5603C3.25668 8.61146 3.28348 8.65812 3.32087 8.69553C3.35827 8.73294 3.40493 8.75975 3.45608 8.77322C3.50723 8.78669 3.56104 8.78634 3.61201 8.77221L6.14337 8.07093C6.19311 8.05716 6.23844 8.03074 6.27493 7.99424L11.6067 2.66224C12.1311 2.13663 12.1311 1.28583 11.6067 0.760255L11.256 0.40954ZM4.67333 5.93571L9.0371 1.57184L10.4444 2.97919L6.08058 7.34305L4.67333 5.93571ZM4.39222 6.49981L5.51654 7.62428L3.96132 8.05518L4.39222 6.49981ZM11.1841 2.23962L10.8672 2.55654L9.45969 1.14907L9.77679 0.832131C10.0685 0.540382 10.5416 0.540382 10.8333 0.832131L11.1841 1.18282C11.4754 1.47492 11.4754 1.94763 11.1841 2.23962Z" fill="white"/>
</g>
<defs>
<clipPath id="clip0_176_149">
<rect width="12" height="12" fill="white"/>
</clipPath>
</defs>
</svg>
