<svg width="96" height="96" viewBox="0 0 96 96" fill="none" xmlns="http://www.w3.org/2000/svg">
<path d="M48 6C24.8415 6 6 24.8415 6 48C6 71.1585 24.8415 90 48 90C71.1585 90 90 71.1585 90 48C90 24.8415 71.1585 6 48 6ZM48 87C26.496 87 9 69.504 9 48C9 26.496 26.496 9 48 9C69.5055 9 87 26.496 87 48C87 69.504 69.5055 87 48 87Z" fill="black"/>
<path d="M69 51H27C26.214 51 25.56 51.6075 25.503 52.3935C25.4745 52.785 24.8895 62.0415 31.05 68.655C34.9695 72.8655 40.6725 75 48 75C55.3275 75 61.0305 72.8655 64.95 68.655C71.109 62.04 70.524 52.7835 70.4955 52.3935C70.4686 52.0152 70.2994 51.6611 70.0219 51.4026C69.7444 51.144 69.3793 51.0002 69 51ZM62.736 66.63C59.406 70.1925 54.45 72 48 72C41.5515 72 36.5925 70.1925 33.264 66.63C29.292 62.379 28.596 56.6175 28.497 54H67.5045C67.4055 56.6175 66.7095 62.3775 62.736 66.63ZM33.75 36C36.231 36 38.25 38.019 38.25 40.5H41.25C41.25 36.3645 37.8855 33 33.75 33C29.6145 33 26.25 36.3645 26.25 40.5H29.25C29.25 38.019 31.269 36 33.75 36ZM62.25 36C64.731 36 66.75 38.019 66.75 40.5H69.75C69.75 36.3645 66.3855 33 62.25 33C58.1145 33 54.75 36.3645 54.75 40.5H57.75C57.75 38.019 59.769 36 62.25 36Z" fill="black"/>
</svg>
