<svg width="364" height="364" viewBox="0 0 364 364" fill="none" xmlns="http://www.w3.org/2000/svg">
<g clip-path="url(#clip0_130_245)">
<path d="M3.37695 276.577L24.4918 281.074C25.831 285.143 27.4744 289.104 29.4079 292.926L17.6533 311.043C17.1216 311.863 16.8874 312.84 16.9897 313.811C17.0921 314.783 17.5248 315.69 18.2156 316.381L43.7781 341.943C44.4689 342.634 45.3759 343.067 46.3474 343.169C47.319 343.271 48.2962 343.037 49.1158 342.506L67.2284 330.754C71.0512 332.689 75.0146 334.333 79.0847 335.672L83.5814 356.782C83.7849 357.738 84.3104 358.594 85.0698 359.209C85.8293 359.824 86.7768 360.159 87.7539 360.159H123.904C124.881 360.159 125.828 359.823 126.587 359.209C127.347 358.594 127.872 357.737 128.075 356.782L132.574 335.671C136.643 334.331 140.606 332.688 144.429 330.754L162.542 342.506C163.362 343.037 164.339 343.272 165.311 343.169C166.283 343.067 167.19 342.634 167.881 341.943L193.442 316.381C194.133 315.69 194.565 314.783 194.668 313.811C194.77 312.84 194.536 311.863 194.004 311.043L182.251 292.926C184.185 289.104 185.828 285.142 187.167 281.074L208.282 276.577C209.237 276.373 210.094 275.848 210.709 275.089C211.323 274.329 211.659 273.382 211.659 272.405V236.254C211.659 235.277 211.323 234.33 210.709 233.57C210.094 232.811 209.237 232.286 208.282 232.082L187.171 227.585C185.832 223.515 184.188 219.552 182.254 215.729L194.006 197.617C194.537 196.797 194.772 195.82 194.669 194.848C194.567 193.877 194.134 192.97 193.443 192.279L167.881 166.715C167.19 166.024 166.283 165.591 165.311 165.489C164.339 165.386 163.362 165.621 162.542 166.153L144.425 177.906C140.604 175.972 136.642 174.329 132.574 172.99L128.075 151.875C127.872 150.92 127.347 150.063 126.587 149.449C125.828 148.834 124.881 148.499 123.904 148.499H87.7539C86.7768 148.498 85.8293 148.834 85.0698 149.448C84.3104 150.063 83.7849 150.92 83.5814 151.875L79.084 172.986C75.0145 174.326 71.0514 175.969 67.2284 177.903L49.1158 166.154C48.2962 165.622 47.319 165.388 46.3474 165.49C45.3759 165.593 44.4689 166.026 43.7781 166.716L18.2156 192.279C17.5248 192.97 17.0921 193.877 16.9897 194.848C16.8874 195.82 17.1216 196.797 17.6533 197.617L29.4072 215.733C27.4734 219.555 25.8299 223.517 24.4904 227.585L3.37553 232.082C2.4203 232.286 1.56394 232.811 0.949558 233.571C0.335176 234.33 -1.28719e-05 235.277 3.70738e-10 236.254L3.70738e-10 272.405C5.65484e-05 273.382 0.335448 274.329 0.950111 275.089C1.56477 275.848 2.42146 276.373 3.37695 276.577ZM8.53125 239.707L28.7069 235.409C29.4575 235.249 30.1508 234.889 30.7138 234.367C31.2769 233.846 31.6888 233.182 31.9062 232.446C33.4381 227.275 35.5113 222.281 38.0913 217.545C38.4586 216.87 38.6369 216.109 38.6073 215.341C38.5778 214.574 38.3416 213.828 37.9235 213.184L26.6907 195.87L47.3705 175.19L64.6811 186.423C65.3252 186.841 66.0705 187.078 66.8381 187.107C67.6056 187.137 68.3669 186.958 69.0413 186.591C73.7793 184.011 78.7758 181.938 83.9482 180.405C84.684 180.188 85.3474 179.776 85.8687 179.213C86.3899 178.65 86.7497 177.957 86.91 177.206L91.2076 157.033H120.453L124.751 177.21C124.911 177.96 125.271 178.654 125.793 179.217C126.314 179.78 126.978 180.192 127.714 180.409C132.885 181.94 137.879 184.012 142.615 186.59C143.29 186.957 144.051 187.135 144.819 187.106C145.586 187.076 146.331 186.84 146.976 186.422L164.291 175.189L184.97 195.869L173.737 213.179C173.319 213.823 173.082 214.569 173.053 215.337C173.023 216.104 173.202 216.866 173.569 217.541C176.148 222.278 178.22 227.275 179.751 232.447C179.968 233.183 180.38 233.847 180.943 234.368C181.506 234.889 182.199 235.249 182.95 235.409L203.123 239.706V268.952L182.947 273.25C182.196 273.41 181.503 273.77 180.94 274.291C180.377 274.813 179.965 275.477 179.748 276.213C178.217 281.383 176.145 286.377 173.566 291.113C173.199 291.788 173.021 292.549 173.05 293.317C173.08 294.085 173.316 294.83 173.735 295.474L184.967 312.789L164.288 333.469L146.978 322.236C146.333 321.818 145.588 321.582 144.821 321.552C144.053 321.522 143.292 321.7 142.617 322.068C137.879 324.647 132.883 326.72 127.711 328.253C126.975 328.47 126.311 328.882 125.79 329.445C125.268 330.008 124.909 330.702 124.748 331.452L120.451 351.63H91.2062L86.9093 331.458C86.7489 330.708 86.3891 330.015 85.8677 329.452C85.3463 328.889 84.6827 328.477 83.9468 328.259C78.7742 326.727 73.7776 324.654 69.0398 322.074C68.3651 321.707 67.6038 321.529 66.8362 321.558C66.0687 321.588 65.3233 321.824 64.679 322.242L47.3691 333.475L26.6893 312.79L37.9221 295.476C38.3403 294.832 38.5766 294.087 38.6063 293.319C38.6359 292.551 38.4578 291.79 38.0906 291.115C35.5123 286.379 33.4406 281.384 31.9097 276.213C31.6922 275.477 31.2803 274.813 30.7172 274.292C30.1542 273.771 29.4609 273.411 28.7105 273.25L8.53125 268.953V239.707Z" fill="black"/>
<path d="M105.829 299.95C114.852 299.95 123.672 297.275 131.174 292.262C138.677 287.249 144.524 280.124 147.977 271.788C151.43 263.452 152.333 254.279 150.573 245.429C148.813 236.58 144.468 228.451 138.087 222.07C131.707 215.69 123.578 211.345 114.729 209.585C105.879 207.825 96.7064 208.728 88.3703 212.181C80.0341 215.634 72.9091 221.481 67.8963 228.984C62.8834 236.486 60.2078 245.306 60.2078 254.329C60.2213 266.425 65.0321 278.021 73.5848 286.573C82.1374 295.126 93.7334 299.937 105.829 299.95ZM105.829 217.24C113.164 217.24 120.335 219.415 126.435 223.49C132.534 227.566 137.288 233.358 140.095 240.136C142.902 246.913 143.637 254.37 142.206 261.565C140.774 268.76 137.242 275.369 132.055 280.556C126.868 285.743 120.259 289.275 113.064 290.706C105.87 292.137 98.4123 291.403 91.635 288.596C84.8578 285.788 79.0652 281.035 74.9897 274.935C70.9143 268.836 68.739 261.665 68.739 254.329C68.7501 244.496 72.6613 235.068 79.6146 228.115C86.5678 221.162 95.9953 217.251 105.829 217.24ZM360.623 129.604L344.401 126.149C343.412 123.215 342.224 120.351 340.847 117.578L349.876 103.66C350.407 102.841 350.642 101.863 350.539 100.892C350.437 99.9204 350.004 99.0134 349.313 98.3226L329.069 78.0786C328.379 77.3879 327.471 76.9553 326.5 76.8531C325.528 76.7509 324.551 76.9852 323.732 77.517L309.811 86.5459C307.039 85.169 304.177 83.9813 301.244 82.9912L297.788 66.7683C297.585 65.8131 297.059 64.9567 296.3 64.3422C295.541 63.7276 294.594 63.3923 293.617 63.3921H264.989C264.012 63.3921 263.065 63.7274 262.306 64.3419C261.546 64.9564 261.021 65.813 260.817 66.7683L257.359 82.9905C254.426 83.9806 251.562 85.1682 248.789 86.5452L234.871 77.5163C234.051 76.9846 233.074 76.7504 232.102 76.8527C231.131 76.9551 230.224 77.3878 229.533 78.0786L209.293 98.3226C208.602 99.0135 208.169 99.9205 208.067 100.892C207.965 101.864 208.199 102.841 208.731 103.66L217.76 117.581C216.382 120.353 215.195 123.215 214.205 126.148L197.984 129.604C197.028 129.807 196.172 130.333 195.557 131.092C194.942 131.851 194.607 132.799 194.607 133.776V162.404C194.607 163.381 194.942 164.329 195.557 165.088C196.172 165.847 197.028 166.373 197.984 166.576L214.208 170.032C215.198 172.965 216.385 175.827 217.763 178.6L208.734 192.52C208.202 193.339 207.968 194.317 208.07 195.288C208.173 196.26 208.606 197.167 209.296 197.857L229.538 218.101C230.229 218.792 231.136 219.224 232.108 219.327C233.08 219.429 234.057 219.195 234.877 218.663L248.794 209.634C251.567 211.011 254.431 212.199 257.366 213.189L260.82 229.409C261.024 230.364 261.549 231.221 262.308 231.836C263.068 232.45 264.015 232.786 264.992 232.786H293.617C294.594 232.786 295.541 232.45 296.301 231.836C297.06 231.221 297.585 230.364 297.789 229.409L301.244 213.187C304.178 212.198 307.042 211.01 309.815 209.633L323.732 218.662C324.552 219.193 325.529 219.427 326.501 219.325C327.472 219.223 328.379 218.79 329.07 218.099L349.315 197.854C350.006 197.163 350.439 196.256 350.541 195.284C350.643 194.312 350.409 193.335 349.877 192.515L340.848 178.594C342.225 175.822 343.413 172.96 344.403 170.028L360.626 166.572C361.582 166.368 362.439 165.843 363.053 165.084C363.668 164.324 364.003 163.377 364.003 162.4V133.773C364.003 132.796 363.667 131.849 363.051 131.09C362.436 130.331 361.579 129.807 360.623 129.604ZM355.469 158.949L340.194 162.203C339.444 162.364 338.75 162.723 338.187 163.245C337.624 163.766 337.212 164.43 336.995 165.166C335.8 169.201 334.183 173.098 332.171 176.794C331.803 177.469 331.625 178.23 331.655 178.998C331.685 179.766 331.921 180.511 332.339 181.155L340.844 194.264L325.483 209.625L312.374 201.124C311.73 200.706 310.984 200.469 310.216 200.44C309.449 200.41 308.687 200.589 308.012 200.956C304.316 202.969 300.417 204.586 296.381 205.781C295.645 205.998 294.982 206.41 294.46 206.973C293.939 207.536 293.579 208.23 293.419 208.98L290.165 224.253H268.442L265.19 208.981C265.029 208.231 264.669 207.538 264.148 206.975C263.627 206.412 262.963 206 262.227 205.782C258.191 204.587 254.291 202.97 250.594 200.957C249.919 200.59 249.158 200.412 248.39 200.441C247.623 200.471 246.878 200.707 246.233 201.125L233.127 209.628L217.767 194.264L226.271 181.156C226.689 180.512 226.926 179.767 226.955 178.999C226.985 178.232 226.807 177.47 226.439 176.796C224.427 173.099 222.811 169.201 221.616 165.166C221.399 164.43 220.987 163.766 220.424 163.245C219.861 162.723 219.167 162.364 218.417 162.203L203.141 158.949V137.226L218.417 133.972C219.167 133.811 219.861 133.452 220.424 132.93C220.987 132.409 221.399 131.745 221.616 131.009C222.811 126.975 224.428 123.077 226.44 119.382C226.807 118.707 226.985 117.946 226.956 117.178C226.926 116.41 226.69 115.665 226.271 115.02L217.767 101.911L233.127 86.5509L246.233 95.0523C246.878 95.4703 247.623 95.7065 248.39 95.7361C249.158 95.7656 249.919 95.5873 250.594 95.2201C254.291 93.2081 258.19 91.5913 262.226 90.3963C262.962 90.1789 263.626 89.7669 264.147 89.2038C264.669 88.6408 265.028 87.9475 265.189 87.1971L268.442 71.9248H290.165L293.419 87.1993C293.58 87.9497 293.94 88.6429 294.461 89.206C294.982 89.769 295.646 90.181 296.382 90.3985C300.417 91.5931 304.314 93.21 308.009 95.2222C308.684 95.5896 309.445 95.7679 310.213 95.7384C310.981 95.7089 311.726 95.4726 312.371 95.0544L325.48 86.5495L340.841 101.91L332.338 115.015C331.92 115.66 331.684 116.405 331.654 117.173C331.625 117.941 331.803 118.702 332.171 119.377C334.183 123.074 335.799 126.973 336.994 131.009C337.212 131.745 337.624 132.408 338.187 132.93C338.75 133.451 339.443 133.811 340.193 133.971L355.469 137.226V158.949Z" fill="black"/>
<path d="M279.304 111.072C271.983 111.072 264.826 113.243 258.739 117.31C252.652 121.377 247.908 127.158 245.106 133.922C242.304 140.686 241.571 148.128 242.999 155.309C244.428 162.489 247.953 169.085 253.13 174.261C258.306 179.438 264.902 182.964 272.082 184.392C279.262 185.82 286.705 185.087 293.469 182.286C300.232 179.484 306.014 174.74 310.081 168.653C314.148 162.566 316.319 155.409 316.32 148.088C316.309 138.274 312.405 128.866 305.466 121.926C298.527 114.986 289.118 111.083 279.304 111.072ZM279.304 176.572C273.67 176.572 268.163 174.901 263.479 171.771C258.795 168.641 255.144 164.193 252.988 158.988C250.832 153.783 250.268 148.056 251.367 142.53C252.466 137.005 255.179 131.929 259.163 127.946C263.146 123.962 268.222 121.249 273.747 120.15C279.273 119.051 285 119.616 290.205 121.772C295.41 123.928 299.858 127.579 302.988 132.263C306.118 136.947 307.789 142.455 307.788 148.088C307.78 155.64 304.776 162.88 299.436 168.22C294.096 173.56 286.856 176.564 279.304 176.572ZM200.194 82.1303C201.15 81.9268 202.007 81.4015 202.621 80.6421C203.236 79.8828 203.571 78.9355 203.571 77.9585V56.8522C203.571 55.8753 203.236 54.928 202.621 54.1687C202.007 53.4093 201.15 52.884 200.194 52.6804L188.855 50.2633C188.223 48.4656 187.493 46.7043 186.667 44.9874L192.978 35.2625C193.51 34.4428 193.745 33.4654 193.642 32.4937C193.54 31.522 193.107 30.6149 192.416 29.924L177.492 15.0008C176.801 14.3098 175.894 13.8769 174.922 13.7746C173.951 13.6722 172.973 13.9066 172.154 14.4384L162.422 20.7515C160.706 19.9256 158.946 19.1951 157.149 18.5633L154.732 7.22168C154.529 6.26618 154.003 5.4095 153.244 4.79484C152.485 4.18017 151.537 3.84478 150.56 3.84473H129.455C128.478 3.84478 127.53 4.18017 126.771 4.79484C126.012 5.4095 125.486 6.26618 125.283 7.22168L122.866 18.5618C121.068 19.194 119.307 19.9245 117.59 20.7501L107.862 14.432C107.042 13.9003 106.065 13.6661 105.094 13.7685C104.122 13.8708 103.215 14.3036 102.524 14.9944L87.5996 29.9219C86.9088 30.6127 86.4761 31.5197 86.3737 32.4912C86.2714 33.4628 86.5056 34.44 87.0373 35.2596L93.3504 44.9902C92.5241 46.7063 91.7938 48.4669 91.1629 50.264L79.8206 52.6812C78.8651 52.8847 78.0084 53.41 77.3937 54.1694C76.7791 54.9287 76.4437 55.876 76.4436 56.8529V77.9593C76.4437 78.9362 76.7791 79.8835 77.3937 80.6428C78.0084 81.4022 78.8651 81.9275 79.8206 82.131L91.1629 84.5482C91.7937 86.3456 92.524 88.1064 93.3504 89.8227L87.0373 99.5526C86.5056 100.372 86.2714 101.349 86.3737 102.321C86.4761 103.292 86.9088 104.199 87.5996 104.89L102.524 119.815C103.215 120.506 104.122 120.939 105.094 121.041C106.065 121.143 107.042 120.909 107.862 120.377L117.591 114.066C119.308 114.892 121.069 115.623 122.867 116.255L125.284 127.593C125.488 128.549 126.013 129.406 126.772 130.02C127.532 130.635 128.479 130.97 129.456 130.97H150.562C151.539 130.97 152.487 130.635 153.246 130.02C154.005 129.406 154.531 128.549 154.734 127.593L157.151 116.254C158.949 115.622 160.711 114.892 162.428 114.066L172.156 120.377C172.976 120.909 173.953 121.144 174.925 121.041C175.897 120.939 176.804 120.506 177.495 119.815L192.419 104.891C193.11 104.2 193.543 103.293 193.645 102.321C193.747 101.35 193.513 100.372 192.981 99.5526L186.668 89.822C187.494 88.1057 188.225 86.3451 188.856 84.5482L200.194 82.1303ZM184.666 76.7158C183.916 76.8762 183.222 77.236 182.659 77.7574C182.096 78.2788 181.684 78.9424 181.467 79.6783C180.608 82.5773 179.446 85.3778 178 88.0332C177.633 88.708 177.455 89.4694 177.484 90.2371C177.514 91.0048 177.75 91.7503 178.168 92.3948L183.945 101.298L173.9 111.34L164.999 105.565C164.355 105.147 163.609 104.91 162.842 104.881C162.074 104.851 161.313 105.03 160.638 105.397C157.981 106.843 155.18 108.004 152.28 108.863C151.544 109.08 150.881 109.492 150.359 110.055C149.838 110.619 149.478 111.312 149.318 112.062L147.109 122.435H132.907L130.698 112.064C130.538 111.313 130.178 110.62 129.656 110.057C129.135 109.494 128.472 109.082 127.736 108.864C124.836 108.006 122.034 106.843 119.378 105.397C118.703 105.03 117.942 104.851 117.174 104.881C116.406 104.91 115.661 105.147 115.016 105.565L106.115 111.34L96.0733 101.298L101.849 92.3955C102.267 91.7512 102.503 91.0059 102.533 90.2383C102.563 89.4707 102.385 88.7094 102.017 88.0347C100.571 85.3788 99.4098 82.5779 98.5516 79.6783C98.3341 78.9424 97.9222 78.2788 97.3591 77.7574C96.7961 77.236 96.1028 76.8762 95.3524 76.7158L84.9749 74.5062V60.3045L95.3496 58.095C96.1 57.9346 96.7932 57.5747 97.3563 57.0534C97.9193 56.532 98.3313 55.8684 98.5488 55.1325C99.4089 52.234 100.572 49.4342 102.02 46.7797C102.387 46.105 102.565 45.3437 102.536 44.5761C102.506 43.8086 102.27 43.0632 101.852 42.4188L96.0754 33.5157L106.117 23.4737L115.018 29.2487C115.663 29.6668 116.408 29.9031 117.176 29.9327C117.944 29.9622 118.705 29.7838 119.38 29.4164C122.036 27.9705 124.836 26.8083 127.736 25.9492C128.471 25.7316 129.135 25.3196 129.656 24.7565C130.177 24.1935 130.537 23.5003 130.697 22.75L132.907 12.3703H147.109L149.318 22.75C149.479 23.5004 149.838 24.1937 150.36 24.7567C150.881 25.3197 151.545 25.7317 152.281 25.9492C155.18 26.8076 157.98 27.9693 160.636 29.415C161.31 29.7823 162.072 29.9606 162.839 29.931C163.607 29.9015 164.352 29.6653 164.997 29.2472L173.9 23.4709L183.942 33.5129L178.167 42.4138C177.749 43.0583 177.513 43.8038 177.483 44.5715C177.454 45.3392 177.632 46.1007 178 46.7754C179.445 49.4318 180.607 52.2332 181.465 55.1332C181.683 55.869 182.095 56.5324 182.658 57.0537C183.221 57.5749 183.914 57.9346 184.665 58.095L195.037 60.3045V74.5062L184.666 76.7158Z" fill="black"/>
<path d="M140.008 38.9951C134.389 38.9957 128.896 40.6624 124.225 43.7845C119.553 46.9067 115.912 51.344 113.762 56.5354C111.612 61.7267 111.05 67.4391 112.146 72.95C113.243 78.4609 115.949 83.5229 119.922 87.4959C123.896 91.4689 128.958 94.1744 134.469 95.2704C139.98 96.3664 145.692 95.8036 150.883 93.6532C156.075 91.5028 160.512 87.8614 163.633 83.1893C166.755 78.5173 168.421 73.0245 168.421 67.4056C168.413 59.8727 165.417 52.6508 160.09 47.3245C154.763 41.9982 147.541 39.0026 140.008 38.9951ZM140.008 87.2848C136.076 87.2843 132.233 86.1179 128.964 83.9332C125.695 81.7485 123.148 78.6436 121.644 75.0111C120.14 71.3786 119.746 67.3816 120.514 63.5256C121.281 59.6696 123.175 56.1277 125.955 53.3479C128.735 50.568 132.277 48.675 136.133 47.9081C139.99 47.1413 143.986 47.5352 147.619 49.0399C151.251 50.5446 154.356 53.0925 156.54 56.3616C158.724 59.6306 159.89 63.474 159.89 67.4056C159.884 72.6765 157.787 77.7298 154.06 81.4567C150.332 85.1836 145.279 87.2796 140.008 87.2848Z" fill="black"/>
</g>
<defs>
<clipPath id="clip0_130_245">
<rect width="364" height="364" fill="white"/>
</clipPath>
</defs>
</svg>
