<svg width="16" height="16" viewBox="0 0 16 16" fill="none" xmlns="http://www.w3.org/2000/svg">
<path d="M15.2697 7.26974H8.73026V0.73026C8.73026 0.536583 8.65332 0.350838 8.51637 0.213888C8.37942 0.0769377 8.19368 0 8 0C7.80632 0 7.62058 0.0769377 7.48363 0.213888C7.34668 0.350838 7.26974 0.536583 7.26974 0.73026V7.26974H0.73026C0.536583 7.26974 0.350838 7.34668 0.213888 7.48363C0.0769377 7.62058 0 7.80632 0 8C0 8.19368 0.0769377 8.37942 0.213888 8.51637C0.350838 8.65332 0.536583 8.73026 0.73026 8.73026H7.26974V15.2697C7.26974 15.4634 7.34668 15.6492 7.48363 15.7861C7.62058 15.9231 7.80632 16 8 16C8.19368 16 8.37942 15.9231 8.51637 15.7861C8.65332 15.6492 8.73026 15.4634 8.73026 15.2697V8.73026H15.2697C15.4634 8.73026 15.6492 8.65332 15.7861 8.51637C15.9231 8.37942 16 8.19368 16 8C16 7.80632 15.9231 7.62058 15.7861 7.48363C15.6492 7.34668 15.4634 7.26974 15.2697 7.26974Z" fill="white"/>
</svg>
