<svg width="121" height="121" viewBox="0 0 121 121" fill="none" xmlns="http://www.w3.org/2000/svg">
<path d="M59.1329 11.3759C45.061 12.0395 33.5055 23.0997 32.2557 37.1073C31.4617 46.0027 34.7684 54.554 41.3289 60.5681C45.1007 64.026 47.2654 68.8244 47.2654 73.7344C47.2654 74.2358 47.4646 74.7167 47.8192 75.0713C48.1737 75.4258 48.6546 75.625 49.156 75.625H71.8435C72.345 75.625 72.8259 75.4258 73.1804 75.0713C73.535 74.7167 73.7342 74.2358 73.7342 73.7344C73.7342 68.8509 75.9254 64.026 79.7501 60.4943C82.617 57.8418 84.9057 54.6262 86.473 51.0487C88.0404 47.4713 88.8527 43.6089 88.8592 39.7031C88.8592 31.8741 85.7396 24.5876 80.0734 19.1823C74.4091 13.7808 66.9657 11.0129 59.1329 11.3759ZM77.1827 57.717C73.0762 61.5096 70.5352 66.5746 70.0418 71.8438L50.9597 71.84C50.47 66.5519 47.9536 61.5115 43.885 57.7794C38.1999 52.567 35.3356 45.1538 36.0238 37.442C37.1052 25.3079 47.118 15.7262 59.3106 15.1515C66.0866 14.8376 72.5563 17.2349 77.4644 21.9161C79.8804 24.2042 81.8022 26.9628 83.1116 30.0218C84.421 33.0809 85.0902 36.3757 85.0779 39.7031C85.0779 46.5169 82.2023 53.0831 77.1827 57.717ZM49.156 77.5156H71.8435V81.2969H49.156V77.5156ZM52.9373 83.1875C52.4359 83.1875 51.955 83.3867 51.6004 83.7413C51.2459 84.0958 51.0467 84.5767 51.0467 85.0781V86.9688C51.0467 92.1812 55.2873 96.4219 60.4998 96.4219C65.7122 96.4219 69.9529 92.1812 69.9529 86.9688V85.0781C69.9529 84.5767 69.7537 84.0958 69.3992 83.7413C69.0446 83.3867 68.5637 83.1875 68.0623 83.1875H52.9373ZM60.4998 92.6406C57.3727 92.6406 54.8279 90.0959 54.8279 86.9688H66.1717C66.1717 90.0959 63.6269 92.6406 60.4998 92.6406Z" fill="black"/>
<path d="M103.984 66.1719H81.2969V69.9531H103.984C104.486 69.9531 104.967 70.1523 105.321 70.5069C105.676 70.8614 105.875 71.3423 105.875 71.8438V111.547C105.875 112.048 105.676 112.529 105.321 112.884C104.967 113.238 104.486 113.438 103.984 113.438H74.1919C69.8167 113.443 65.6011 111.795 62.3906 108.822V100.203H58.6094V108.822C55.3989 111.795 51.1833 113.443 46.8081 113.438H17.0156C16.5142 113.438 16.0333 113.238 15.6788 112.884C15.3242 112.529 15.125 112.048 15.125 111.547V71.8438C15.125 71.3423 15.3242 70.8614 15.6788 70.5069C16.0333 70.1523 16.5142 69.9531 17.0156 69.9531H39.7031V66.1719H17.0156C13.8885 66.1719 11.3438 68.7167 11.3438 71.8438V111.547C11.3438 114.674 13.8885 117.219 17.0156 117.219H46.8081C51.8769 117.219 56.6734 115.457 60.5 112.222C64.3252 115.462 69.1792 117.233 74.1919 117.219H103.984C107.111 117.219 109.656 114.674 109.656 111.547V71.8438C109.656 68.7167 107.111 66.1719 103.984 66.1719ZM41.5938 32.1406V47.2656C41.5938 47.767 41.7929 48.2479 42.1475 48.6025C42.5021 48.9571 42.983 49.1562 43.4844 49.1562H77.5156C78.0171 49.1562 78.4979 48.9571 78.8525 48.6025C79.2071 48.2479 79.4062 47.767 79.4062 47.2656V32.1406C79.4062 31.6392 79.2071 31.1583 78.8525 30.8037C78.4979 30.4492 78.0171 30.25 77.5156 30.25H43.4844C42.983 30.25 42.5021 30.4492 42.1475 30.8037C41.7929 31.1583 41.5938 31.6392 41.5938 32.1406ZM45.375 34.0312H75.625V45.375H45.375V34.0312Z" fill="black"/>
<path d="M49.1562 37.8125H56.7188V41.5938H49.1562V37.8125ZM60.5 37.8125H71.8438V41.5938H60.5V37.8125ZM94.5312 37.8125H107.766V41.5938H94.5312V37.8125ZM13.2344 37.8125H26.4688V41.5938H13.2344V37.8125ZM83.2159 14.3121L92.5745 4.95349L95.2459 7.62494L85.8873 16.9835L83.2159 14.3121ZM25.7371 7.62305L28.4104 4.94971L37.769 14.3083L35.0957 16.9798L25.7371 7.62305ZM20.7969 79.4063H37.8125V83.1876H20.7969V79.4063ZM20.7969 88.8594H41.5938V92.6407H20.7969V88.8594ZM20.7969 98.3126H45.375V102.094H20.7969V98.3126ZM83.1875 79.4063H100.203V83.1876H83.1875V79.4063ZM79.4062 88.8594H100.203V92.6407H79.4062V88.8594ZM75.625 98.3126H100.203V102.094H75.625V98.3126Z" fill="black"/>
</svg>
